<svg xmlns="http://www.w3.org/2000/svg" version="1.1" xmlns:xlink="http://www.w3.org/1999/xlink" xmlns:svgjs="http://svgjs.com/svgjs" width="1440" height="560" preserveAspectRatio="none" viewBox="0 0 1440 560"><g mask="url(&quot;#SvgjsMask1002&quot;)" fill="none"><path d="M105.44554766322884-66.38202498122665L-49.19926771678112-0.7391953950286307 16.443561869416897 153.90561998498134 171.08837724942686 88.26279039878331z" fill="rgba(28, 83, 142, 0.4)" class="triangle-float2"></path><path d="M144.798,275.518C194.827,277.171,246.664,261.388,272.893,218.754C300.225,174.327,294.91,118.355,269.515,72.793C243.375,25.893,198.479,-9.915,144.798,-11.068C89.255,-12.261,35.881,17.839,10.446,67.23C-13.259,113.261,2.503,167.239,30.568,210.749C55.998,250.173,97.91,273.969,144.798,275.518" fill="rgba(28, 83, 142, 0.4)" class="triangle-float2"></path><path d="M-69.53305556660536 96.78816228188998L80.15604049704046 173.05856623813384 156.42644445328432 23.369470174488 6.737348389638484-52.90093378175584z" fill="rgba(28, 83, 142, 0.4)" class="triangle-float3"></path><path d="M1315.189021648232-17.27986181183355L1267.8557763332738 84.22661033627124 1443.78210721291 104.47324223465635z" fill="rgba(28, 83, 142, 0.4)" class="triangle-float1"></path><path d="M1515.2701929006353 69.79705323799908L1409.5443672042625-60.763468286771996 1384.7096713758642 175.52287893437182z" fill="rgba(28, 83, 142, 0.4)" class="triangle-float3"></path><path d="M1469.9137863222277 92.46823865899887L1351.7372096012166-59.08837724942688 1286.0943800150185 95.5564381305831z" fill="rgba(28, 83, 142, 0.4)" class="triangle-float3"></path><path d="M48.786,579.352C75.577,577.238,91.148,552.274,104.765,529.105C118.657,505.468,136.036,478.071,122.236,454.38C108.48,430.765,76.061,431.298,48.786,433.01C25.222,434.489,3.195,443.295,-10.255,462.699C-26.136,485.61,-37.504,514.465,-24.915,539.338C-11.385,566.07,18.918,581.709,48.786,579.352" fill="rgba(28, 83, 142, 0.4)" class="triangle-float3"></path><path d="M-65.50044181171863 452.42612229258503L-2.5665341178453573 608.1930098598053 153.20035344937492 545.2591021659321 90.26644575550164 389.49221459871177z" fill="rgba(28, 83, 142, 0.4)" class="triangle-float3"></path><path d="M19.53176134100103 418.08621367777226L-0.7391953950285455 609.1992677167812 153.90561998498137 543.556438130583z" fill="rgba(28, 83, 142, 0.4)" class="triangle-float3"></path><path d="M1394.427,608.007C1426.959,608.783,1454.437,586.648,1470.953,558.61C1487.757,530.082,1495.886,494.035,1477.957,466.201C1461.009,439.89,1425.721,440.239,1394.427,439.808C1361.972,439.361,1323.736,436.147,1306.812,463.843C1289.513,492.152,1306.744,526.753,1323.974,555.104C1340.322,582.003,1362.959,607.256,1394.427,608.007" fill="rgba(28, 83, 142, 0.4)" class="triangle-float3"></path><path d="M1453.686,719.071C1503.173,718.049,1540.649,681.022,1566.708,638.939C1594.666,593.789,1618.894,539.593,1593.805,492.788C1567.755,444.192,1508.821,427.556,1453.686,428.094C1399.637,428.622,1344.74,448.376,1318.226,495.478C1292.12,541.856,1304.7,598.262,1332.277,643.781C1358.723,687.434,1402.658,720.125,1453.686,719.071" fill="rgba(28, 83, 142, 0.4)" class="triangle-float2"></path><path d="M1290.6808817854035 505.62889126747973L1460.2841858391569 596.0160052006127 1457.3521815576933 428.0415924143389z" fill="rgba(28, 83, 142, 0.4)" class="triangle-float2"></path></g><defs><mask id="SvgjsMask1002"><rect width="1440" height="560" fill="#ffffff"></rect></mask><style>
            @keyframes float1 {
                0%{transform: translate(0, 0)}
                50%{transform: translate(-10px, 0)}
                100%{transform: translate(0, 0)}
            }

            .triangle-float1 {
                animation: float1 5s infinite;
            }

            @keyframes float2 {
                0%{transform: translate(0, 0)}
                50%{transform: translate(-5px, -5px)}
                100%{transform: translate(0, 0)}
            }

            .triangle-float2 {
                animation: float2 4s infinite;
            }

            @keyframes float3 {
                0%{transform: translate(0, 0)}
                50%{transform: translate(0, -10px)}
                100%{transform: translate(0, 0)}
            }

            .triangle-float3 {
                animation: float3 6s infinite;
            }
        </style></defs></svg>