<svg xmlns="http://www.w3.org/2000/svg" version="1.1" xmlns:xlink="http://www.w3.org/1999/xlink" xmlns:svgjs="http://svgjs.com/svgjs" width="1440" height="1440" preserveAspectRatio="none" viewBox="0 0 1440 1440"><g mask="url(&quot;#SvgjsMask1198&quot;)" fill="none"><path d="M964.32 590.59L1073.58 590.59L1073.58 655.98L964.32 655.98z" stroke="#e73635"></path><path d="M937.9 310.07L1029.98 310.07L1029.98 402.15L937.9 402.15z" stroke="rgba(3, 123, 11, .5)"></path><path d="M152.42 248.97 a55.58 55.58 0 1 0 111.16 0 a55.58 55.58 0 1 0 -111.16 0z" fill="rgba(33, 150, 243, .5)"></path><path d="M1200.28 955.47a139.75 139.75 0 1 0-124.24-250.37z" stroke="#e73635"></path><path d="M89.49 845.45L227.24 845.45L227.24 856.18L89.49 856.18z" stroke="rgba(33, 150, 243, .5)"></path><path d="M776.19 460.15L806.61 460.15L806.61 490.57L776.19 490.57z" stroke="rgba(33, 150, 243, .5)"></path><path d="M562.77 758.96 a135.8 135.8 0 1 0 271.6 0 a135.8 135.8 0 1 0 -271.6 0z" stroke="rgba(33, 150, 243, .5)"></path><path d="M1388.69 514.04 a42.46 42.46 0 1 0 84.92 0 a42.46 42.46 0 1 0 -84.92 0z" stroke="rgba(3, 123, 11, .5)"></path><path d="M88.35 350.4L230.61 350.4L230.61 434.9L88.35 434.9z" fill="rgba(33, 150, 243, .5)"></path><path d="M56.08 570.9a48.85 48.85 0 1 0 97.16 10.24z" stroke="rgba(3, 123, 11, .5)"></path><path d="M369.65 464.02 a25.87 25.87 0 1 0 51.74 0 a25.87 25.87 0 1 0 -51.74 0z" stroke="rgba(3, 123, 11, .5)"></path><path d="M1227.29 791.67L1280.7 791.67L1280.7 845.08L1227.29 845.08z" fill="rgba(3, 123, 11, .5)"></path><path d="M189.51 372.68a113.25 113.25 0 1 0-118.69 192.91z" stroke="rgba(33, 150, 243, .5)"></path></g><defs><mask id="SvgjsMask1198"><rect width="1440" height="1440" fill="#ffffff"></rect></mask></defs></svg>