<?xml version="1.0" encoding="UTF-8"?>
<svg xmlns="http://www.w3.org/2000/svg" xmlns:xlink="http://www.w3.org/1999/xlink" width="60px" height="60px" viewBox="0 0 60 60" version="1.1">
<g id="surface1">
<path style=" stroke:none;fill-rule:nonzero;fill:rgb(100%,77.647059%,10.588235%);fill-opacity:1;" d="M 45.199219 60 L 20.714844 60 C 19.816406 60 19.089844 59.273438 19.089844 58.375 L 19.089844 51.304688 C 19.089844 50.410156 19.816406 49.679688 20.714844 49.679688 L 33.710938 49.679688 C 34.605469 49.679688 35.332031 50.410156 35.332031 51.304688 C 35.332031 52.203125 34.605469 52.929688 33.710938 52.929688 L 22.335938 52.929688 L 22.335938 56.75 L 43.574219 56.75 L 43.574219 52.929688 L 40.902344 52.929688 C 40.003906 52.929688 39.277344 52.203125 39.277344 51.304688 C 39.277344 50.410156 40.003906 49.679688 40.902344 49.679688 L 45.199219 49.679688 C 46.097656 49.679688 46.824219 50.410156 46.824219 51.304688 L 46.824219 58.375 C 46.824219 59.273438 46.097656 60 45.199219 60 Z M 45.199219 60 "/>
<path style=" stroke:none;fill-rule:nonzero;fill:rgb(99.607843%,88.235294%,52.941176%);fill-opacity:1;" d="M 34.773438 28.953125 L 34.773438 27.382812 C 34.773438 25.8125 33.496094 24.476562 31.847656 24.421875 C 30.121094 24.363281 28.703125 25.679688 28.703125 27.3125 L 28.703125 29.007812 L 28.667969 13.839844 C 28.667969 12.242188 27.308594 10.945312 25.632812 10.945312 L 25.515625 10.945312 C 23.839844 10.945312 22.480469 12.242188 22.480469 13.839844 L 22.480469 34.808594 L 19.523438 27.613281 C 19.003906 26.0625 17.261719 25.207031 15.632812 25.699219 C 14.003906 26.195312 13.109375 27.855469 13.628906 29.410156 L 20.117188 42.769531 C 20.917969 44.421875 22.648438 45.476562 24.558594 45.476562 L 42.019531 45.484375 C 44.726562 45.484375 46.921875 43.394531 46.921875 40.816406 L 46.921875 29.34375 C 46.921875 27.746094 45.5625 26.449219 43.886719 26.449219 C 42.207031 26.449219 40.847656 27.746094 40.847656 29.34375 L 40.847656 28.65625 C 40.847656 27.058594 39.488281 25.761719 37.8125 25.761719 C 36.132812 25.761719 34.773438 27.058594 34.773438 28.65625 "/>
<path style=" stroke:none;fill-rule:nonzero;fill:rgb(100%,77.647059%,10.588235%);fill-opacity:1;" d="M 42.023438 47.109375 C 42.023438 47.109375 42.019531 47.109375 42.019531 47.109375 L 24.558594 47.101562 C 22.039062 47.101562 19.722656 45.679688 18.652344 43.480469 L 12.167969 30.121094 C 12.136719 30.054688 12.109375 29.992188 12.085938 29.925781 C 11.703125 28.777344 11.796875 27.546875 12.355469 26.464844 C 12.933594 25.347656 13.929688 24.523438 15.160156 24.148438 C 17.433594 23.453125 19.871094 24.535156 20.855469 26.578125 L 20.855469 13.839844 C 20.855469 11.347656 22.945312 9.320312 25.515625 9.320312 L 25.632812 9.320312 C 28.203125 9.320312 30.292969 11.347656 30.292969 13.839844 L 30.3125 23.011719 C 30.824219 22.855469 31.363281 22.777344 31.90625 22.796875 C 33.414062 22.847656 34.726562 23.589844 35.539062 24.714844 C 36.210938 24.347656 36.988281 24.136719 37.8125 24.136719 C 39.175781 24.136719 40.402344 24.707031 41.257812 25.613281 C 42.003906 25.117188 42.910156 24.824219 43.886719 24.824219 C 46.457031 24.824219 48.546875 26.851562 48.546875 29.34375 L 48.546875 40.816406 C 48.546875 42.511719 47.855469 44.101562 46.605469 45.292969 C 45.378906 46.464844 43.75 47.109375 42.023438 47.109375 Z M 15.144531 28.8125 L 21.578125 42.058594 C 22.105469 43.148438 23.277344 43.851562 24.558594 43.851562 L 42.019531 43.859375 C 42.023438 43.859375 42.023438 43.859375 42.023438 43.859375 C 42.910156 43.859375 43.742188 43.535156 44.363281 42.941406 C 44.964844 42.371094 45.296875 41.617188 45.296875 40.816406 L 45.296875 29.34375 C 45.296875 28.644531 44.664062 28.074219 43.886719 28.074219 C 43.105469 28.074219 42.472656 28.644531 42.472656 29.34375 C 42.472656 30.242188 41.746094 30.96875 40.847656 30.96875 C 39.953125 30.96875 39.222656 30.242188 39.222656 29.34375 L 39.222656 28.65625 C 39.222656 27.957031 38.589844 27.386719 37.8125 27.386719 C 37.035156 27.386719 36.398438 27.957031 36.398438 28.65625 L 36.398438 28.953125 C 36.398438 29.851562 35.671875 30.578125 34.777344 30.578125 C 33.878906 30.578125 33.152344 29.851562 33.152344 28.953125 L 33.152344 27.382812 C 33.152344 26.671875 32.542969 26.070312 31.792969 26.046875 C 31.378906 26.03125 30.988281 26.175781 30.707031 26.449219 C 30.460938 26.6875 30.328125 26.992188 30.328125 27.3125 L 30.328125 29.007812 C 30.328125 29.90625 29.601562 30.632812 28.703125 30.632812 C 27.804688 30.632812 27.078125 29.910156 27.078125 29.011719 L 27.078125 29.007812 L 27.042969 13.84375 C 27.042969 13.140625 26.410156 12.570312 25.632812 12.570312 L 25.515625 12.570312 C 24.738281 12.570312 24.105469 13.140625 24.105469 13.839844 L 24.105469 34.808594 C 24.105469 35.582031 23.554688 36.25 22.792969 36.402344 C 22.03125 36.550781 21.269531 36.144531 20.976562 35.425781 L 18.019531 28.230469 C 18.007812 28.195312 17.996094 28.164062 17.984375 28.128906 C 17.746094 27.417969 16.886719 27.019531 16.105469 27.253906 C 15.722656 27.371094 15.414062 27.621094 15.242188 27.953125 C 15.140625 28.148438 15.046875 28.449219 15.144531 28.8125 Z M 15.144531 28.8125 "/>
<path style=" stroke:none;fill-rule:nonzero;fill:rgb(100%,77.647059%,10.588235%);fill-opacity:1;" d="M 25.460938 7.539062 C 24.5625 7.539062 23.835938 6.808594 23.835938 5.914062 L 23.835938 1.625 C 23.835938 0.726562 24.5625 0 25.460938 0 C 26.355469 0 27.085938 0.726562 27.085938 1.625 L 27.085938 5.914062 C 27.085938 6.808594 26.355469 7.539062 25.460938 7.539062 Z M 25.460938 7.539062 "/>
<path style=" stroke:none;fill-rule:nonzero;fill:rgb(100%,77.647059%,10.588235%);fill-opacity:1;" d="M 19.738281 9.90625 C 19.320312 9.90625 18.90625 9.75 18.585938 9.433594 L 15.554688 6.398438 C 14.921875 5.765625 14.921875 4.738281 15.554688 4.101562 C 16.191406 3.46875 17.21875 3.46875 17.851562 4.101562 L 20.886719 7.132812 C 21.519531 7.769531 21.519531 8.796875 20.886719 9.433594 C 20.566406 9.75 20.152344 9.90625 19.738281 9.90625 Z M 19.738281 9.90625 "/>
<path style=" stroke:none;fill-rule:nonzero;fill:rgb(100%,77.647059%,10.588235%);fill-opacity:1;" d="M 37.839844 15.632812 L 33.554688 15.632812 C 32.65625 15.632812 31.929688 14.902344 31.929688 14.007812 C 31.929688 13.109375 32.65625 12.382812 33.554688 12.382812 L 37.839844 12.382812 C 38.738281 12.382812 39.464844 13.109375 39.464844 14.007812 C 39.464844 14.902344 38.738281 15.632812 37.839844 15.632812 Z M 37.839844 15.632812 "/>
<path style=" stroke:none;fill-rule:nonzero;fill:rgb(100%,77.647059%,10.588235%);fill-opacity:1;" d="M 17.367188 15.632812 L 13.078125 15.632812 C 12.179688 15.632812 11.453125 14.902344 11.453125 14.007812 C 11.453125 13.109375 12.179688 12.382812 13.078125 12.382812 L 17.367188 12.382812 C 18.261719 12.382812 18.992188 13.109375 18.992188 14.007812 C 18.992188 14.902344 18.261719 15.632812 17.367188 15.632812 Z M 17.367188 15.632812 "/>
<path style=" stroke:none;fill-rule:nonzero;fill:rgb(100%,77.647059%,10.588235%);fill-opacity:1;" d="M 31.183594 9.90625 C 30.765625 9.90625 30.351562 9.75 30.035156 9.433594 C 29.398438 8.796875 29.398438 7.769531 30.035156 7.132812 L 33.066406 4.101562 C 33.699219 3.46875 34.730469 3.46875 35.363281 4.101562 C 36 4.738281 36 5.765625 35.363281 6.398438 L 32.332031 9.433594 C 32.015625 9.75 31.597656 9.90625 31.183594 9.90625 Z M 31.183594 9.90625 "/>
</g>
</svg>
