<?xml version="1.0" encoding="UTF-8"?>
<svg xmlns="http://www.w3.org/2000/svg" xmlns:xlink="http://www.w3.org/1999/xlink" width="60px" height="60px" viewBox="0 0 60 60" version="1.1">
<g id="surface1">
<path style=" stroke:none;fill-rule:nonzero;fill:rgb(100%,77.647059%,10.588235%);fill-opacity:1;" d="M 47.859375 60 L 18.703125 60 C 17.730469 60 16.9375 59.210938 16.9375 58.234375 L 16.9375 49.820312 C 16.9375 48.84375 17.730469 48.054688 18.703125 48.054688 L 34.175781 48.054688 C 35.152344 48.054688 35.941406 48.84375 35.941406 49.820312 C 35.941406 50.792969 35.152344 51.582031 34.175781 51.582031 L 20.46875 51.582031 L 20.46875 56.472656 L 46.09375 56.472656 L 46.09375 51.582031 L 42.742188 51.582031 C 41.765625 51.582031 40.976562 50.792969 40.976562 49.820312 C 40.976562 48.84375 41.765625 48.054688 42.742188 48.054688 L 47.859375 48.054688 C 48.832031 48.054688 49.621094 48.84375 49.621094 49.820312 L 49.621094 58.234375 C 49.621094 59.210938 48.832031 60 47.859375 60 Z M 47.859375 60 "/>
<path style=" stroke:none;fill-rule:nonzero;fill:rgb(99.607843%,88.235294%,52.941176%);fill-opacity:1;" d="M 35.445312 23.203125 L 35.445312 21.335938 C 35.445312 19.464844 33.921875 17.875 31.964844 17.808594 C 29.90625 17.738281 28.214844 19.308594 28.214844 21.253906 L 28.214844 23.269531 L 28.175781 5.210938 C 28.175781 3.308594 26.558594 1.765625 24.5625 1.765625 L 24.421875 1.765625 C 22.425781 1.765625 20.804688 3.308594 20.804688 5.210938 L 20.804688 30.175781 L 17.289062 21.609375 C 16.667969 19.761719 14.59375 18.742188 12.65625 19.332031 C 10.71875 19.921875 9.648438 21.898438 10.265625 23.746094 L 17.992188 39.65625 C 18.945312 41.621094 21.011719 42.878906 23.28125 42.878906 L 44.074219 42.886719 C 47.296875 42.890625 49.90625 40.402344 49.90625 37.328125 L 49.910156 23.671875 C 49.910156 21.765625 48.292969 20.222656 46.292969 20.222656 C 44.296875 20.222656 42.679688 21.765625 42.679688 23.671875 L 42.679688 22.851562 C 42.679688 20.949219 41.058594 19.40625 39.0625 19.40625 C 37.066406 19.40625 35.445312 20.949219 35.445312 22.851562 "/>
<path style=" stroke:none;fill-rule:nonzero;fill:rgb(100%,77.647059%,10.588235%);fill-opacity:1;" d="M 44.074219 44.652344 L 23.28125 44.644531 C 20.347656 44.640625 17.648438 42.984375 16.40625 40.425781 L 8.679688 24.519531 C 8.648438 24.449219 8.617188 24.378906 8.59375 24.308594 C 8.152344 22.984375 8.261719 21.566406 8.902344 20.320312 C 9.566406 19.027344 10.71875 18.078125 12.140625 17.644531 C 14.960938 16.785156 17.996094 18.285156 18.941406 20.988281 L 19.042969 21.234375 L 19.042969 5.210938 C 19.042969 2.335938 21.457031 0 24.421875 0 L 24.5625 0 C 27.527344 0 29.941406 2.335938 29.941406 5.210938 L 29.964844 16.367188 C 30.617188 16.132812 31.316406 16.019531 32.023438 16.046875 C 33.820312 16.105469 35.378906 17.015625 36.304688 18.378906 C 37.109375 17.910156 38.054688 17.640625 39.0625 17.640625 C 40.691406 17.640625 42.148438 18.34375 43.136719 19.453125 C 44.023438 18.828125 45.117188 18.460938 46.292969 18.460938 C 49.261719 18.460938 51.671875 20.796875 51.671875 23.671875 L 51.671875 37.328125 C 51.671875 39.300781 50.871094 41.152344 49.414062 42.539062 C 47.984375 43.902344 46.089844 44.652344 44.074219 44.652344 Z M 11.914062 23.097656 L 19.578125 38.886719 C 20.238281 40.238281 21.691406 41.113281 23.28125 41.117188 L 44.074219 41.125 C 45.175781 41.125 46.210938 40.71875 46.980469 39.984375 C 47.730469 39.269531 48.144531 38.328125 48.144531 37.328125 L 48.144531 23.671875 C 48.144531 22.742188 47.316406 21.988281 46.292969 21.988281 C 45.273438 21.988281 44.441406 22.742188 44.441406 23.671875 C 44.441406 24.644531 43.652344 25.433594 42.679688 25.433594 C 41.703125 25.433594 40.914062 24.644531 40.914062 23.671875 L 40.914062 22.851562 C 40.914062 21.925781 40.082031 21.167969 39.0625 21.167969 C 38.042969 21.167969 37.210938 21.925781 37.210938 22.851562 L 37.210938 23.203125 C 37.210938 24.179688 36.421875 24.96875 35.445312 24.96875 C 34.472656 24.96875 33.683594 24.179688 33.683594 23.203125 L 33.683594 21.335938 C 33.683594 20.394531 32.882812 19.605469 31.902344 19.570312 C 31.363281 19.550781 30.855469 19.742188 30.484375 20.101562 C 30.160156 20.414062 29.980469 20.824219 29.980469 21.253906 L 29.980469 23.269531 C 29.980469 24.242188 29.191406 25.03125 28.21875 25.035156 C 28.214844 25.035156 28.214844 25.035156 28.214844 25.035156 C 27.242188 25.035156 26.453125 24.246094 26.453125 23.273438 L 26.414062 5.214844 C 26.414062 4.285156 25.582031 3.527344 24.5625 3.527344 L 24.421875 3.527344 C 23.402344 3.527344 22.570312 4.28125 22.570312 5.210938 L 22.570312 30.175781 C 22.570312 31.015625 21.972656 31.742188 21.148438 31.90625 C 20.320312 32.070312 19.496094 31.625 19.175781 30.84375 L 15.65625 22.277344 C 15.640625 22.242188 15.628906 22.207031 15.617188 22.167969 C 15.296875 21.222656 14.199219 20.707031 13.167969 21.019531 C 12.667969 21.171875 12.265625 21.5 12.039062 21.9375 C 11.851562 22.300781 11.808594 22.710938 11.914062 23.097656 Z M 11.914062 23.097656 "/>
</g>
</svg>
